<svg width="14" height="101" viewBox="0 0 14 101" fill="none" xmlns="http://www.w3.org/2000/svg">
<path d="M6.112 8.01V2.799H1V0.918L12.88 0.918V2.799H7.795V8.01H12.88V9.882L1 9.882V8.01L6.112 8.01ZM6.949 31.6256C6.133 31.6256 5.392 31.7966 4.726 32.1386C4.066 32.4806 3.541 32.9516 3.151 33.5516C2.767 34.1516 2.575 34.8416 2.575 35.6216C2.575 36.4136 2.767 37.1066 3.151 37.7006C3.541 38.3006 4.066 38.7686 4.726 39.1046C5.392 39.4466 6.133 39.6176 6.949 39.6176C7.765 39.6176 8.503 39.4466 9.163 39.1046C9.823 38.7686 10.345 38.3006 10.729 37.7006C11.113 37.1066 11.305 36.4136 11.305 35.6216C11.305 34.8416 11.113 34.1516 10.729 33.5516C10.345 32.9516 9.823 32.4806 9.163 32.1386C8.503 31.7966 7.765 31.6256 6.949 31.6256ZM6.949 29.6546C7.813 29.6546 8.617 29.8046 9.361 30.1046C10.111 30.4106 10.765 30.8306 11.323 31.3646C11.881 31.9046 12.316 32.5376 12.628 33.2636C12.94 33.9896 13.096 34.7756 13.096 35.6216C13.096 36.4796 12.94 37.2686 12.628 37.9886C12.316 38.7146 11.881 39.3476 11.323 39.8876C10.765 40.4276 10.111 40.8446 9.361 41.1386C8.617 41.4326 7.813 41.5796 6.949 41.5796C6.079 41.5796 5.269 41.4326 4.519 41.1386C3.775 40.8506 3.121 40.4396 2.557 39.9056C1.999 39.3716 1.564 38.7416 1.252 38.0156C0.94 37.2896 0.784 36.4916 0.784 35.6216C0.784 34.7456 0.94 33.9416 1.252 33.2096C1.564 32.4836 1.999 31.8536 2.557 31.3196C3.121 30.7916 3.775 30.3806 4.519 30.0866C5.269 29.7986 6.079 29.6546 6.949 29.6546ZM12.88 72.6389H1L1 70.7489H9.091L10.612 70.8389L8.902 70.4789L1.756 67.8779V66.0149L8.902 63.4229L10.612 63.0629L9.091 63.1529H1V61.2629H12.88V63.8459L3.988 66.8159L3.277 66.9509L3.988 67.0769L12.88 70.0649V72.6389ZM12.88 93.045L12.88 100.245H11.188V94.926H7.777V100.155H6.13V94.926H2.692V100.245H1V93.045H12.88Z" fill="#C8CCD8"/>
</svg>
