<svg width="14" height="205" viewBox="0 0 14 205" fill="none" xmlns="http://www.w3.org/2000/svg">
<path d="M12.88 4.59V6.525L1 11.007V8.991L3.718 8.01V3.114L1 2.124V0.099L12.88 4.59ZM5.401 3.726V7.398L10.576 5.571V5.544L5.401 3.726ZM12.88 30.2036V33.7496C12.88 34.4036 12.79 35.0156 12.61 35.5856C12.436 36.1616 12.139 36.6266 11.719 36.9806C11.305 37.3346 10.732 37.5116 10 37.5116C9.508 37.5116 9.064 37.4156 8.668 37.2236C8.272 37.0376 7.951 36.8006 7.705 36.5126C7.459 36.2246 7.309 35.9306 7.255 35.6306C7.231 35.8826 7.153 36.1466 7.021 36.4226C6.895 36.7046 6.715 36.9686 6.481 37.2146C6.247 37.4666 5.953 37.6706 5.599 37.8266C5.245 37.9826 4.831 38.0606 4.357 38.0606C3.697 38.0606 3.115 37.9226 2.611 37.6466C2.107 37.3706 1.711 36.9596 1.423 36.4136C1.141 35.8676 1 35.1836 1 34.3616V30.2036H12.88ZM2.557 32.0936V34.0556C2.557 34.5716 2.644 34.9736 2.818 35.2616C2.992 35.5556 3.223 35.7656 3.511 35.8916C3.805 36.0176 4.126 36.0806 4.474 36.0806C5.044 36.0806 5.491 35.8976 5.815 35.5316C6.139 35.1656 6.301 34.6406 6.301 33.9566V32.0936H2.557ZM7.831 32.0936V33.8036C7.831 34.2176 7.915 34.5596 8.083 34.8296C8.257 35.0996 8.485 35.3006 8.767 35.4326C9.055 35.5646 9.355 35.6306 9.667 35.6306C10.297 35.6306 10.729 35.4476 10.963 35.0816C11.203 34.7156 11.323 34.2266 11.323 33.6146V32.0936H7.831ZM6.949 59.3463C6.133 59.3463 5.392 59.5173 4.726 59.8593C4.066 60.2013 3.541 60.6723 3.151 61.2723C2.767 61.8723 2.575 62.5623 2.575 63.3423C2.575 64.1343 2.767 64.8273 3.151 65.4213C3.541 66.0213 4.066 66.4893 4.726 66.8253C5.392 67.1673 6.133 67.3383 6.949 67.3383C7.765 67.3383 8.503 67.1673 9.163 66.8253C9.823 66.4893 10.345 66.0213 10.729 65.4213C11.113 64.8273 11.305 64.1343 11.305 63.3423C11.305 62.5623 11.113 61.8723 10.729 61.2723C10.345 60.6723 9.823 60.2013 9.163 59.8593C8.503 59.5173 7.765 59.3463 6.949 59.3463ZM6.949 57.3753C7.813 57.3753 8.617 57.5253 9.361 57.8253C10.111 58.1313 10.765 58.5513 11.323 59.0853C11.881 59.6253 12.316 60.2583 12.628 60.9843C12.94 61.7103 13.096 62.4963 13.096 63.3423C13.096 64.2003 12.94 64.9893 12.628 65.7093C12.316 66.4353 11.881 67.0683 11.323 67.6083C10.765 68.1483 10.111 68.5653 9.361 68.8593C8.617 69.1533 7.813 69.3003 6.949 69.3003C6.079 69.3003 5.269 69.1533 4.519 68.8593C3.775 68.5713 3.121 68.1603 2.557 67.6263C1.999 67.0923 1.564 66.4623 1.252 65.7363C0.94 65.0103 0.784 64.2123 0.784 63.3423C0.784 62.4663 0.94 61.6623 1.252 60.9303C1.564 60.2043 1.999 59.5743 2.557 59.0403C3.121 58.5123 3.775 58.1013 4.519 57.8073C5.269 57.5193 6.079 57.3753 6.949 57.3753ZM12.88 96.2736V98.1636H5.527C4.549 98.1636 3.703 97.9686 2.989 97.5786C2.281 97.1946 1.735 96.6576 1.351 95.9676C0.973 95.2776 0.784 94.4736 0.784 93.5556C0.784 92.6436 0.973 91.8396 1.351 91.1436C1.735 90.4476 2.281 89.9046 2.989 89.5146C3.703 89.1246 4.549 88.9296 5.527 88.9296H12.88V90.8196H5.626C4.978 90.8196 4.423 90.9366 3.961 91.1706C3.499 91.4106 3.145 91.7346 2.899 92.1426C2.653 92.5566 2.53 93.0276 2.53 93.5556C2.53 94.0836 2.653 94.5516 2.899 94.9596C3.145 95.3676 3.499 95.6886 3.961 95.9226C4.423 96.1566 4.978 96.2736 5.626 96.2736H12.88ZM11.188 120.681V117.594H12.88V125.667H11.188V122.58H1V120.681H11.188ZM12.88 175.111V177.001H5.527C4.549 177.001 3.703 176.806 2.989 176.416C2.281 176.032 1.735 175.495 1.351 174.805C0.973 174.115 0.784 173.311 0.784 172.393C0.784 171.481 0.973 170.677 1.351 169.981C1.735 169.285 2.281 168.742 2.989 168.352C3.703 167.962 4.549 167.767 5.527 167.767H12.88V169.657H5.626C4.978 169.657 4.423 169.774 3.961 170.008C3.499 170.248 3.145 170.572 2.899 170.98C2.653 171.394 2.53 171.865 2.53 172.393C2.53 172.921 2.653 173.389 2.899 173.797C3.145 174.205 3.499 174.526 3.961 174.76C4.423 174.994 4.978 175.111 5.626 175.111H12.88ZM13.096 201.04C13.096 201.736 13.015 202.339 12.853 202.849C12.697 203.365 12.529 203.773 12.349 204.073C12.175 204.373 12.061 204.553 12.007 204.613L10.468 203.668C10.546 203.578 10.654 203.416 10.792 203.182C10.936 202.954 11.065 202.672 11.179 202.336C11.293 202.006 11.35 201.637 11.35 201.229C11.35 200.617 11.23 200.131 10.99 199.771C10.756 199.411 10.414 199.231 9.964 199.231C9.664 199.231 9.4 199.327 9.172 199.519C8.944 199.711 8.731 199.984 8.533 200.338C8.335 200.698 8.134 201.127 7.93 201.625C7.756 202.045 7.558 202.453 7.336 202.849C7.114 203.251 6.853 203.611 6.553 203.929C6.253 204.247 5.905 204.499 5.509 204.685C5.113 204.877 4.657 204.973 4.141 204.973C3.601 204.973 3.121 204.862 2.701 204.64C2.287 204.418 1.936 204.112 1.648 203.722C1.366 203.332 1.15 202.882 1 202.372C0.856 201.868 0.784 201.328 0.784 200.752C0.784 199.996 0.874 199.315 1.054 198.709C1.24 198.109 1.432 197.623 1.63 197.251C1.834 196.879 1.966 196.663 2.026 196.603L3.637 197.602C3.577 197.674 3.487 197.806 3.367 197.998C3.253 198.196 3.13 198.439 2.998 198.727C2.872 199.015 2.764 199.333 2.674 199.681C2.59 200.035 2.548 200.401 2.548 200.779C2.548 201.505 2.704 202.054 3.016 202.426C3.334 202.798 3.742 202.984 4.24 202.984C4.618 202.984 4.945 202.864 5.221 202.624C5.503 202.39 5.758 202.066 5.986 201.652C6.214 201.244 6.439 200.779 6.661 200.257C6.895 199.723 7.159 199.228 7.453 198.772C7.747 198.322 8.104 197.959 8.524 197.683C8.95 197.407 9.466 197.269 10.072 197.269C10.678 197.269 11.206 197.44 11.656 197.782C12.112 198.13 12.466 198.589 12.718 199.159C12.97 199.729 13.096 200.356 13.096 201.04Z" fill="#C8CCD8"/>
</svg>
