<svg width="14" height="233" viewBox="0 0 14 233" fill="none" xmlns="http://www.w3.org/2000/svg">
<path d="M12.88 0.99V4.644C12.88 5.388 12.754 6.06 12.502 6.66C12.25 7.266 11.863 7.749 11.341 8.109C10.819 8.469 10.147 8.649 9.325 8.649C8.503 8.649 7.816 8.469 7.264 8.109C6.718 7.749 6.307 7.266 6.031 6.66C5.755 6.06 5.617 5.388 5.617 4.644V2.88H1V0.99L12.88 0.99ZM7.165 2.88V4.122C7.165 4.584 7.231 5.004 7.363 5.382C7.501 5.766 7.726 6.069 8.038 6.291C8.35 6.519 8.764 6.633 9.28 6.633C9.802 6.633 10.21 6.519 10.504 6.291C10.804 6.069 11.017 5.766 11.143 5.382C11.269 5.004 11.332 4.584 11.332 4.122V2.88H7.165ZM6.949 29.8853C6.133 29.8853 5.392 30.0563 4.726 30.3983C4.066 30.7403 3.541 31.2113 3.151 31.8113C2.767 32.4113 2.575 33.1013 2.575 33.8813C2.575 34.6733 2.767 35.3663 3.151 35.9603C3.541 36.5603 4.066 37.0283 4.726 37.3643C5.392 37.7063 6.133 37.8773 6.949 37.8773C7.765 37.8773 8.503 37.7063 9.163 37.3643C9.823 37.0283 10.345 36.5603 10.729 35.9603C11.113 35.3663 11.305 34.6733 11.305 33.8813C11.305 33.1013 11.113 32.4113 10.729 31.8113C10.345 31.2113 9.823 30.7403 9.163 30.3983C8.503 30.0563 7.765 29.8853 6.949 29.8853ZM6.949 27.9143C7.813 27.9143 8.617 28.0643 9.361 28.3643C10.111 28.6703 10.765 29.0903 11.323 29.6243C11.881 30.1643 12.316 30.7973 12.628 31.5233C12.94 32.2493 13.096 33.0353 13.096 33.8813C13.096 34.7393 12.94 35.5283 12.628 36.2483C12.316 36.9743 11.881 37.6073 11.323 38.1473C10.765 38.6873 10.111 39.1043 9.361 39.3983C8.617 39.6923 7.813 39.8393 6.949 39.8393C6.079 39.8393 5.269 39.6923 4.519 39.3983C3.775 39.1103 3.121 38.6993 2.557 38.1653C1.999 37.6313 1.564 37.0013 1.252 36.2753C0.94 35.5493 0.784 34.7513 0.784 33.8813C0.784 33.0053 0.94 32.2013 1.252 31.4693C1.564 30.7433 1.999 30.1133 2.557 29.5793C3.121 29.0513 3.775 28.6403 4.519 28.3463C5.269 28.0583 6.079 27.9143 6.949 27.9143ZM12.88 59.5406V63.9056C12.88 64.5596 12.742 65.1506 12.466 65.6786C12.196 66.2126 11.8 66.6356 11.278 66.9476C10.756 67.2596 10.123 67.4156 9.379 67.4156C8.641 67.4156 8.032 67.2746 7.552 66.9926C7.072 66.7106 6.712 66.3716 6.472 65.9756C6.232 65.5796 6.097 65.2106 6.067 64.8686L1 67.7936V65.6606L5.923 62.9606V61.4306H1V59.5406H12.88ZM7.291 61.4306V63.2306C7.291 63.8666 7.45 64.4006 7.768 64.8326C8.086 65.2646 8.605 65.4806 9.325 65.4806C10.051 65.4806 10.567 65.2676 10.873 64.8416C11.179 64.4156 11.332 63.8846 11.332 63.2486V61.4306H7.291ZM11.188 89.7608V86.6738H12.88L12.88 94.7468H11.188L11.188 91.6598H1V89.7608H11.188ZM12.88 114.385V120.784H11.188V116.275H7.795V120.469H6.112V116.275H1V114.385H12.88ZM6.949 142.139C6.133 142.139 5.392 142.31 4.726 142.652C4.066 142.994 3.541 143.465 3.151 144.065C2.767 144.665 2.575 145.355 2.575 146.135C2.575 146.927 2.767 147.62 3.151 148.214C3.541 148.814 4.066 149.282 4.726 149.618C5.392 149.96 6.133 150.131 6.949 150.131C7.765 150.131 8.503 149.96 9.163 149.618C9.823 149.282 10.345 148.814 10.729 148.214C11.113 147.62 11.305 146.927 11.305 146.135C11.305 145.355 11.113 144.665 10.729 144.065C10.345 143.465 9.823 142.994 9.163 142.652C8.503 142.31 7.765 142.139 6.949 142.139ZM6.949 140.168C7.813 140.168 8.617 140.318 9.361 140.618C10.111 140.924 10.765 141.344 11.323 141.878C11.881 142.418 12.316 143.051 12.628 143.777C12.94 144.503 13.096 145.289 13.096 146.135C13.096 146.993 12.94 147.782 12.628 148.502C12.316 149.228 11.881 149.861 11.323 150.401C10.765 150.941 10.111 151.358 9.361 151.652C8.617 151.946 7.813 152.093 6.949 152.093C6.079 152.093 5.269 151.946 4.519 151.652C3.775 151.364 3.121 150.953 2.557 150.419C1.999 149.885 1.564 149.255 1.252 148.529C0.94 147.803 0.784 147.005 0.784 146.135C0.784 145.259 0.94 144.455 1.252 143.723C1.564 142.997 1.999 142.367 2.557 141.833C3.121 141.305 3.775 140.894 4.519 140.6C5.269 140.312 6.079 140.168 6.949 140.168ZM12.88 171.831V173.73H2.692V178.293H1V171.831H12.88ZM12.88 198.376V200.266H1V198.376H12.88ZM6.949 222.102C6.133 222.102 5.392 222.273 4.726 222.615C4.066 222.957 3.541 223.428 3.151 224.028C2.767 224.628 2.575 225.318 2.575 226.098C2.575 226.89 2.767 227.583 3.151 228.177C3.541 228.777 4.066 229.245 4.726 229.581C5.392 229.923 6.133 230.094 6.949 230.094C7.765 230.094 8.503 229.923 9.163 229.581C9.823 229.245 10.345 228.777 10.729 228.177C11.113 227.583 11.305 226.89 11.305 226.098C11.305 225.318 11.113 224.628 10.729 224.028C10.345 223.428 9.823 222.957 9.163 222.615C8.503 222.273 7.765 222.102 6.949 222.102ZM6.949 220.131C7.813 220.131 8.617 220.281 9.361 220.581C10.111 220.887 10.765 221.307 11.323 221.841C11.881 222.381 12.316 223.014 12.628 223.74C12.94 224.466 13.096 225.252 13.096 226.098C13.096 226.956 12.94 227.745 12.628 228.465C12.316 229.191 11.881 229.824 11.323 230.364C10.765 230.904 10.111 231.321 9.361 231.615C8.617 231.909 7.813 232.056 6.949 232.056C6.079 232.056 5.269 231.909 4.519 231.615C3.775 231.327 3.121 230.916 2.557 230.382C1.999 229.848 1.564 229.218 1.252 228.492C0.94 227.766 0.784 226.968 0.784 226.098C0.784 225.222 0.94 224.418 1.252 223.686C1.564 222.96 1.999 222.33 2.557 221.796C3.121 221.268 3.775 220.857 4.519 220.563C5.269 220.275 6.079 220.131 6.949 220.131Z" fill="#C8CCD8"/>
</svg>
