<svg width="14" height="184" viewBox="0 0 14 184" fill="none" xmlns="http://www.w3.org/2000/svg">
<path d="M2.656 6.84C2.656 7.524 2.749 8.121 2.935 8.631C3.127 9.147 3.316 9.522 3.502 9.756L1.882 10.566C1.642 10.296 1.399 9.825 1.153 9.153C0.907 8.481 0.784 7.677 0.784 6.741C0.784 5.865 0.94 5.049 1.252 4.293C1.564 3.537 1.996 2.874 2.548 2.304C3.106 1.734 3.757 1.29 4.501 0.972C5.245 0.654 6.052 0.495 6.922 0.495C7.792 0.495 8.602 0.654 9.352 0.972C10.102 1.29 10.756 1.731 11.314 2.295C11.872 2.865 12.307 3.528 12.619 4.284C12.937 5.046 13.096 5.865 13.096 6.741C13.096 7.677 12.973 8.481 12.727 9.153C12.481 9.825 12.238 10.296 11.998 10.566L10.378 9.756C10.564 9.522 10.75 9.147 10.936 8.631C11.128 8.121 11.224 7.524 11.224 6.84C11.224 6.192 11.116 5.604 10.9 5.076C10.684 4.548 10.381 4.095 9.991 3.717C9.601 3.339 9.145 3.048 8.623 2.844C8.107 2.64 7.549 2.538 6.949 2.538C6.343 2.538 5.779 2.64 5.257 2.844C4.735 3.048 4.279 3.339 3.889 3.717C3.499 4.095 3.196 4.548 2.98 5.076C2.764 5.604 2.656 6.192 2.656 6.84ZM6.949 31.8014C6.133 31.8014 5.392 31.9724 4.726 32.3144C4.066 32.6564 3.541 33.1274 3.151 33.7274C2.767 34.3274 2.575 35.0174 2.575 35.7974C2.575 36.5894 2.767 37.2824 3.151 37.8764C3.541 38.4764 4.066 38.9444 4.726 39.2804C5.392 39.6224 6.133 39.7934 6.949 39.7934C7.765 39.7934 8.503 39.6224 9.163 39.2804C9.823 38.9444 10.345 38.4764 10.729 37.8764C11.113 37.2824 11.305 36.5894 11.305 35.7974C11.305 35.0174 11.113 34.3274 10.729 33.7274C10.345 33.1274 9.823 32.6564 9.163 32.3144C8.503 31.9724 7.765 31.8014 6.949 31.8014ZM6.949 29.8304C7.813 29.8304 8.617 29.9804 9.361 30.2804C10.111 30.5864 10.765 31.0064 11.323 31.5404C11.881 32.0804 12.316 32.7134 12.628 33.4394C12.94 34.1654 13.096 34.9514 13.096 35.7974C13.096 36.6554 12.94 37.4444 12.628 38.1644C12.316 38.8904 11.881 39.5234 11.323 40.0634C10.765 40.6034 10.111 41.0204 9.361 41.3144C8.617 41.6084 7.813 41.7554 6.949 41.7554C6.079 41.7554 5.269 41.6084 4.519 41.3144C3.775 41.0264 3.121 40.6154 2.557 40.0814C1.999 39.5474 1.564 38.9174 1.252 38.1914C0.94 37.4654 0.784 36.6674 0.784 35.7974C0.784 34.9214 0.94 34.1174 1.252 33.3854C1.564 32.6594 1.999 32.0294 2.557 31.4954C3.121 30.9674 3.775 30.5564 4.519 30.2624C5.269 29.9744 6.079 29.8304 6.949 29.8304ZM11.107 63.2386L11.089 63.3646H1V61.4746H12.88V64.1116L2.8 69.8536L2.773 69.7366H12.88V71.6176H1V68.9716L11.107 63.2386ZM11.188 94.3135L11.188 91.2265H12.88L12.88 99.2995H11.188V96.2125H1V94.3135H11.188ZM12.88 121.238V123.173L1 127.655V125.639L3.718 124.658V119.762L1 118.772V116.747L12.88 121.238ZM5.401 120.374V124.046L10.576 122.219V122.192L5.401 120.374ZM2.656 152.44C2.656 153.124 2.749 153.721 2.935 154.231C3.127 154.747 3.316 155.122 3.502 155.356L1.882 156.166C1.642 155.896 1.399 155.425 1.153 154.753C0.907 154.081 0.784 153.277 0.784 152.341C0.784 151.465 0.94 150.649 1.252 149.893C1.564 149.137 1.996 148.474 2.548 147.904C3.106 147.334 3.757 146.89 4.501 146.572C5.245 146.254 6.052 146.095 6.922 146.095C7.792 146.095 8.602 146.254 9.352 146.572C10.102 146.89 10.756 147.331 11.314 147.895C11.872 148.465 12.307 149.128 12.619 149.884C12.937 150.646 13.096 151.465 13.096 152.341C13.096 153.277 12.973 154.081 12.727 154.753C12.481 155.425 12.238 155.896 11.998 156.166L10.378 155.356C10.564 155.122 10.75 154.747 10.936 154.231C11.128 153.721 11.224 153.124 11.224 152.44C11.224 151.792 11.116 151.204 10.9 150.676C10.684 150.148 10.381 149.695 9.991 149.317C9.601 148.939 9.145 148.648 8.623 148.444C8.107 148.24 7.549 148.138 6.949 148.138C6.343 148.138 5.779 148.24 5.257 148.444C4.735 148.648 4.279 148.939 3.889 149.317C3.499 149.695 3.196 150.148 2.98 150.676C2.764 151.204 2.656 151.792 2.656 152.44ZM11.188 178.337V175.25H12.88V183.323H11.188V180.236H1V178.337H11.188Z" fill="#C8CCD8"/>
</svg>
